<svg width="49" height="49" viewBox="0 0 49 49" fill="none" xmlns="http://www.w3.org/2000/svg">
<circle cx="24.5" cy="24.5" r="24" stroke="#E6E6E6"/>
<g clip-path="url(#clip0_517_2935)">
<path d="M35.4239 29.821C35.0005 30.7992 34.4993 31.6997 33.9186 32.5276C33.127 33.6562 32.4789 34.4374 31.9794 34.8712C31.2051 35.5833 30.3755 35.948 29.4871 35.9687C28.8493 35.9687 28.0802 35.7872 27.185 35.4191C26.2867 35.0527 25.4613 34.8712 24.7065 34.8712C23.9149 34.8712 23.066 35.0527 22.1579 35.4191C21.2485 35.7872 20.5158 35.9791 19.9557 35.9981C19.1038 36.0344 18.2546 35.6593 17.407 34.8712C16.8661 34.3994 16.1894 33.5905 15.3788 32.4446C14.5091 31.221 13.7941 29.802 13.234 28.1843C12.6341 26.4369 12.3333 24.7449 12.3333 23.1067C12.3333 21.2303 12.7388 19.6118 13.5509 18.2556C14.1892 17.1662 15.0384 16.3069 16.1011 15.6761C17.1639 15.0452 18.3122 14.7237 19.5488 14.7032C20.2254 14.7032 21.1128 14.9125 22.2155 15.3238C23.315 15.7366 24.0211 15.9459 24.3306 15.9459C24.562 15.9459 25.3463 15.7011 26.676 15.2132C27.9333 14.7607 28.9945 14.5734 29.8639 14.6472C32.2196 14.8373 33.9894 15.7659 35.1664 17.439C33.0596 18.7155 32.0174 20.5035 32.0381 22.7972C32.0571 24.5838 32.7053 26.0705 33.9791 27.2509C34.5563 27.7988 35.201 28.2223 35.9183 28.523C35.7627 28.9741 35.5985 29.4062 35.4239 29.821ZM30.0212 8.56065C30.0212 9.96097 29.5096 11.2684 28.4898 12.4786C27.2593 13.9173 25.7708 14.7486 24.1567 14.6175C24.1362 14.4495 24.1242 14.2726 24.1242 14.0869C24.1242 12.7425 24.7094 11.3039 25.7487 10.1276C26.2675 9.53198 26.9274 9.03675 27.7276 8.64171C28.5261 8.25255 29.2814 8.03734 29.9918 8.00049C30.0125 8.18769 30.0212 8.3749 30.0212 8.56063V8.56065Z" fill="white"/>
</g>
<defs>
<clipPath id="clip0_517_2935">
<rect width="28" height="28" fill="white" transform="translate(10 8)"/>
</clipPath>
</defs>
</svg>
