<svg width="35" height="35" viewBox="0 0 35 35" fill="none" xmlns="http://www.w3.org/2000/svg">
<path d="M21.8752 24.7917V26.2501C21.8752 28.6663 19.9164 30.6251 17.5002 30.6251C15.0839 30.6251 13.1252 28.6663 13.1252 26.2501V24.7919M21.8752 24.7917L13.1252 24.7919M21.8752 24.7917H27.7085C28.5139 24.7917 29.1668 24.1389 29.1668 23.3334V22.4789C29.1668 22.0922 29.013 21.7214 28.7396 21.4478L27.9948 20.703C27.8114 20.5197 27.7085 20.2709 27.7085 20.0116V14.5834C27.7085 14.3261 27.6992 14.0709 27.68 13.8194M13.1252 24.7919L7.29183 24.7919C6.48642 24.7919 5.8335 24.1385 5.8335 23.3331V22.4789C5.8335 22.0922 5.98726 21.7218 6.26074 21.4482L7.00557 20.7023C7.18886 20.519 7.29183 20.2712 7.29183 20.0119V14.5834C7.29183 8.94551 11.8622 4.37508 17.5002 4.37508C18.5379 4.37508 19.5395 4.52993 20.4831 4.81779M27.68 13.8194C29.4393 12.8149 30.6252 10.921 30.6252 8.75008C30.6252 5.52842 28.0135 2.91675 24.7918 2.91675C23.0852 2.91675 21.5498 3.64961 20.4831 4.81779M27.68 13.8194C26.8285 14.3056 25.8426 14.5834 24.7918 14.5834C21.5702 14.5834 18.9585 11.9717 18.9585 8.75008C18.9585 7.23502 19.5361 5.85486 20.4831 4.81779M27.68 13.8194C27.68 13.8194 27.68 13.8194 27.68 13.8194ZM20.4831 4.81779C20.4838 4.81799 20.4845 4.8182 20.4851 4.81841" stroke="white" stroke-width="2" stroke-linecap="round" stroke-linejoin="round"/>
</svg>
