<svg width="18" height="19" viewBox="0 0 18 19" fill="none" xmlns="http://www.w3.org/2000/svg">
<path d="M1 17.8674H17M1 17.8674V13.648L9 5.20906M1 17.8674L5 17.8674L13 9.4285M9 5.20906L11.8686 2.18303L11.8704 2.18123C12.2652 1.76469 12.463 1.55604 12.691 1.4779C12.8919 1.40906 13.1082 1.40906 13.3091 1.4779C13.5369 1.55599 13.7345 1.76439 14.1288 2.18035L15.8686 4.0156C16.2646 4.43334 16.4627 4.64231 16.5369 4.88316C16.6022 5.09503 16.6021 5.32324 16.5369 5.5351C16.4628 5.77579 16.265 5.98444 15.8695 6.40158L15.8686 6.40248L13 9.4285M9 5.20906L13 9.4285" stroke="#1C2F2E" stroke-width="2" stroke-linecap="round" stroke-linejoin="round"/>
</svg>
