<svg width="32" height="22" viewBox="0 0 32 22" fill="none" xmlns="http://www.w3.org/2000/svg">
<path d="M2.66667 2.42857L12.8461 9.01752L12.8495 9.01994C13.9797 9.73041 14.5452 10.0859 15.1646 10.2232C15.712 10.3445 16.2875 10.3445 16.835 10.2232C17.4549 10.0857 18.022 9.72925 19.1543 9.01752C19.1543 9.01752 25.6835 4.72277 29.3333 2.42857M1 16.4289V5.57171C1 3.97156 1 3.17089 1.36331 2.55971C1.68289 2.0221 2.19245 1.58533 2.81966 1.31141C3.5327 1 4.46682 1 6.33366 1H25.667C27.5338 1 28.466 1 29.179 1.31141C29.8062 1.58533 30.3175 2.0221 30.637 2.55971C31 3.17029 31 3.96999 31 5.56701V16.4337C31 18.0307 31 18.8293 30.637 19.4398C30.3175 19.9774 29.8062 20.415 29.179 20.6889C28.4667 21 27.535 21 25.6718 21H6.32818C4.46499 21 3.532 21 2.81966 20.6889C2.19245 20.415 1.68289 19.9774 1.36331 19.4398C1 18.8287 1 18.029 1 16.4289Z" stroke="black" stroke-width="1.5" stroke-linecap="round" stroke-linejoin="round"/>
</svg>
