<svg width="29" height="27" viewBox="0 0 29 27" fill="none" xmlns="http://www.w3.org/2000/svg">
<path d="M25.3 6.40002H3.7C2.20883 6.40002 1 7.60886 1 9.10002V22.6C1 24.0912 2.20883 25.3 3.7 25.3H25.3C26.7912 25.3 28 24.0912 28 22.6V9.10002C28 7.60886 26.7912 6.40002 25.3 6.40002Z" stroke="white" stroke-width="2" stroke-linecap="round" stroke-linejoin="round"/>
<path d="M19.9001 25.3V3.7C19.9001 2.98392 19.6156 2.29716 19.1093 1.79081C18.6029 1.28446 17.9162 1 17.2001 1H11.8001C11.084 1 10.3973 1.28446 9.89091 1.79081C9.38456 2.29716 9.1001 2.98392 9.1001 3.7V25.3" stroke="white" stroke-width="2" stroke-linecap="round" stroke-linejoin="round"/>
</svg>
