<svg width="19" height="23" viewBox="0 0 19 23" fill="none" xmlns="http://www.w3.org/2000/svg">
<path d="M17.9145 10.0751C17.9145 16.4962 9.71616 22 9.71616 22C9.71616 22 1.51782 16.4962 1.51782 10.0751C1.51782 7.88551 2.38157 5.78563 3.91906 4.23738C5.45655 2.68913 7.54183 1.81934 9.71616 1.81934C11.8905 1.81934 13.9758 2.68913 15.5133 4.23738C17.0507 5.78563 17.9145 7.88551 17.9145 10.0751Z" stroke="#979797" stroke-width="2" stroke-linecap="round" stroke-linejoin="round"/>
<path d="M9.71618 12.8271C11.2254 12.8271 12.449 11.595 12.449 10.0752C12.449 8.55531 11.2254 7.32324 9.71618 7.32324C8.20691 7.32324 6.9834 8.55531 6.9834 10.0752C6.9834 11.595 8.20691 12.8271 9.71618 12.8271Z" stroke="#979797" stroke-width="2" stroke-linecap="round" stroke-linejoin="round"/>
</svg>
