<?xml version="1.0" encoding="UTF-8"?>
<svg id="Layer_2" data-name="Layer 2" xmlns="http://www.w3.org/2000/svg" xmlns:xlink="http://www.w3.org/1999/xlink" viewBox="0 0 13.06 10.06">
  <defs>
    <style>
      .cls-1 {
        fill: url(#linear-gradient);
      }

      .cls-1, .cls-2, .cls-3, .cls-4, .cls-5, .cls-6, .cls-7 {
        stroke-width: 0px;
      }

      .cls-2 {
        fill: url(#linear-gradient-6);
      }

      .cls-3 {
        fill: url(#linear-gradient-5);
      }

      .cls-4 {
        fill: #e9b6c4;
      }

      .cls-5 {
        fill: url(#linear-gradient-2);
      }

      .cls-6 {
        fill: url(#linear-gradient-3);
      }

      .cls-7 {
        fill: url(#linear-gradient-4);
      }
    </style>
    <linearGradient id="linear-gradient" x1="174.44" y1=".81" x2="173.19" y2="2.47" gradientTransform="translate(176.84) rotate(-180) scale(1 -1)" gradientUnits="userSpaceOnUse">
      <stop offset=".33" stop-color="#e9b6c4"/>
      <stop offset=".75" stop-color="#017677"/>
    </linearGradient>
    <linearGradient id="linear-gradient-2" x1="172.21" y1=".45" x2="169.65" y2="4.57" gradientTransform="translate(174.24 7.58) rotate(-176.91) scale(1 -1)" gradientUnits="userSpaceOnUse">
      <stop offset=".33" stop-color="#017677"/>
      <stop offset=".78" stop-color="#374769"/>
    </linearGradient>
    <linearGradient id="linear-gradient-3" x1="173.63" y1="-1.58" x2="173.85" y2="10.77" gradientTransform="translate(176.84) rotate(-180) scale(1 -1)" gradientUnits="userSpaceOnUse">
      <stop offset="0" stop-color="#374769"/>
      <stop offset="1" stop-color="#000"/>
    </linearGradient>
    <linearGradient id="linear-gradient-4" x1="174.44" y1=".81" x2="173.19" y2="2.47" gradientTransform="translate(-163.78)" xlink:href="#linear-gradient"/>
    <linearGradient id="linear-gradient-5" x1="172.21" y1=".45" x2="169.65" y2="4.57" gradientTransform="translate(-161.18 7.58) rotate(-3.09)" xlink:href="#linear-gradient-2"/>
    <linearGradient id="linear-gradient-6" x1="173.63" y1="-1.58" x2="173.85" y2="10.77" gradientTransform="translate(-163.78)" xlink:href="#linear-gradient-3"/>
  </defs>
  <g id="Layer_2-2" data-name="Layer 2">
    <g>
      <path class="cls-4" d="m1.53,5.02s.03-1.04.52-1.77C2.95,1.88,4.08.49,4.24.69c.24.31-.29,1.06-.29,1.06l-2.42,3.27Z"/>
      <path class="cls-1" d="m1.48,4.34s.11-.62.95-1.55C3.53,1.58,5.24-.2,5.38.02c.21.33-.42,1.02-.42,1.02l-3.48,3.31Z"/>
      <path class="cls-5" d="m1.66,3.93C2.45,1.84,6.51-.48,6.53.31c.01.42-.74.75-.74.75L1.66,3.93Z"/>
      <path class="cls-6" d="m0,10.06s1.24-1.08,1.3-2.43.09-3.43.33-3.9,1.98-2.16,2.42-2.37,2.27-.94,2.12-.52c-.13.36-.53.65-1.57,1.03-.62.47-1.59,1.08-1.72,2.17s.29,1.7.03,2.53c.93-.15,1.46-2.3,3.12-1.76-.87,1.21-.86,2.23-2.16,3.75s-3.87,1.5-3.87,1.5Z"/>
      <path class="cls-4" d="m11.53,5.02s-.03-1.04-.52-1.77c-.9-1.37-2.04-2.76-2.2-2.56-.24.31.29,1.06.29,1.06l2.42,3.27Z"/>
      <path class="cls-7" d="m11.58,4.34s-.11-.62-.95-1.55C9.52,1.58,7.82-.2,7.68.02c-.21.33.42,1.02.42,1.02l3.48,3.31Z"/>
      <path class="cls-3" d="m11.39,3.93C10.6,1.84,6.55-.48,6.53.31c-.01.42.74.75.74.75l4.12,2.86Z"/>
      <path class="cls-2" d="m13.06,10.06s-1.24-1.08-1.3-2.43-.09-3.43-.33-3.9-1.98-2.16-2.42-2.37-2.27-.94-2.12-.52c.13.36.53.65,1.57,1.03.62.47,1.59,1.08,1.72,2.17s-.29,1.7-.03,2.53c-.93-.15-1.46-2.3-3.12-1.76.87,1.21.86,2.23,2.16,3.75s3.87,1.5,3.87,1.5Z"/>
    </g>
  </g>
</svg>