<svg width="33" height="31" viewBox="0 0 33 31" fill="none" xmlns="http://www.w3.org/2000/svg">
<path d="M26 13L20 19V22H23L29 16M26 13L29 10L32 13L29 16M26 13L29 16" stroke="white" stroke-width="2" stroke-linecap="round" stroke-linejoin="round"/>
<path d="M23 14.5117V11.0117C23.0155 9.39933 22.6249 8.65835 21.5 7.51172L16 2.01166C15.1356 1.19799 14.3422 0.938993 12 1.01166H4.5C1.78226 1.12777 1.20643 2.10557 1 4.51166V26.0117C1.35545 27.8071 1.83812 28.5289 3.5 29.0117H19.5C22.2478 28.8748 23.1123 27.8232 23 23.5117" stroke="white" stroke-width="2" stroke-linecap="round"/>
<path d="M13.4997 1.01172V6.01172C13.4089 9.31474 14.0625 10.4359 16.9997 10.5117H22.9997M7 18.0117H16.9997M7 23.0117H16.9997" stroke="white" stroke-width="2" stroke-linecap="round"/>
</svg>
