<svg width="32" height="26" viewBox="0 0 32 26" fill="none" xmlns="http://www.w3.org/2000/svg">
<path d="M22.3333 25V22.3333C22.3333 20.9188 21.7714 19.5623 20.7712 18.5621C19.771 17.5619 18.4145 17 17 17H6.33333C4.91884 17 3.56229 17.5619 2.5621 18.5621C1.5619 19.5623 1 20.9188 1 22.3333V25" stroke="white" stroke-width="2" stroke-linecap="round" stroke-linejoin="round"/>
<path d="M11.6668 11.6667C14.6123 11.6667 17.0002 9.27885 17.0002 6.33333C17.0002 3.38781 14.6123 1 11.6668 1C8.72131 1 6.3335 3.38781 6.3335 6.33333C6.3335 9.27885 8.72131 11.6667 11.6668 11.6667Z" stroke="white" stroke-width="2" stroke-linecap="round" stroke-linejoin="round"/>
<path d="M30.3335 25V22.3333C30.3326 21.1516 29.9393 20.0037 29.2153 19.0698C28.4913 18.1358 27.4777 17.4688 26.3335 17.1733" stroke="white" stroke-width="2" stroke-linecap="round" stroke-linejoin="round"/>
<path d="M21 1.17334C22.1472 1.46707 23.164 2.13427 23.8902 3.06975C24.6163 4.00523 25.0105 5.15578 25.0105 6.34001C25.0105 7.52423 24.6163 8.67478 23.8902 9.61026C23.164 10.5457 22.1472 11.2129 21 11.5067" stroke="white" stroke-width="2" stroke-linecap="round" stroke-linejoin="round"/>
</svg>
