<svg width="21" height="16" viewBox="0 0 21 16" fill="none" xmlns="http://www.w3.org/2000/svg">
<path d="M2.05556 2L8.50251 6.61227L8.50466 6.61396C9.22051 7.11128 9.57865 7.3601 9.97091 7.45621C10.3176 7.54117 10.6821 7.54117 11.0288 7.45621C11.4214 7.36001 11.7806 7.11047 12.4977 6.61227C12.4977 6.61227 16.6329 3.60594 18.9444 2M1 11.8002V4.2002C1 3.08009 1 2.51962 1.2301 2.0918C1.4325 1.71547 1.75522 1.40973 2.15245 1.21799C2.60404 1 3.19565 1 4.37798 1H16.6224C17.8048 1 18.3951 1 18.8467 1.21799C19.2439 1.40973 19.5677 1.71547 19.7701 2.0918C20 2.5192 20 3.07899 20 4.19691V11.8036C20 12.9215 20 13.4805 19.7701 13.9079C19.5677 14.2842 19.2439 14.5905 18.8467 14.7822C18.3955 15 17.8055 15 16.6255 15H4.37452C3.19449 15 2.6036 15 2.15245 14.7822C1.75522 14.5905 1.4325 14.2842 1.2301 13.9079C1 13.4801 1 12.9203 1 11.8002Z" stroke="#979797" stroke-width="2" stroke-linecap="round" stroke-linejoin="round"/>
</svg>
